<svg width="107" height="107" viewBox="0 0 107 107" fill="none" xmlns="http://www.w3.org/2000/svg">
<path d="M66.875 93.625C89.0354 93.625 107 75.6604 107 53.5C107 31.3396 89.0354 13.375 66.875 13.375C44.7146 13.375 26.75 31.3396 26.75 53.5C26.75 75.6604 44.7146 93.625 66.875 93.625Z" fill="#F1F3F4"/>
<path d="M66.875 93.625C89.0354 93.625 107 75.6604 107 53.5C107 31.3396 89.0354 13.375 66.875 13.375C44.7146 13.375 26.75 31.3396 26.75 53.5C26.75 75.6604 44.7146 93.625 66.875 93.625Z" fill="url(#paint0_linear_105_143)"/>
<path fill-rule="evenodd" clip-rule="evenodd" d="M66.875 93.625C66.875 75.1575 51.905 60.1875 33.4375 60.1875C14.97 60.1875 0 75.1575 0 93.625C0.0501562 93.5481 66.8917 93.5748 66.875 93.625Z" fill="#D9D9D9"/>
<defs>
<linearGradient id="paint0_linear_105_143" x1="29.4697" y1="16.0947" x2="107" y2="93.625" gradientUnits="userSpaceOnUse">
<stop stop-color="#DBDBDB"/>
<stop offset="1" stop-color="#BFBFBF"/>
</linearGradient>
</defs>
</svg>
